<svg width="30" height="30" viewBox="0 0 30 30" fill="none" xmlns="http://www.w3.org/2000/svg">
<g clip-path="url(#clip0_1234_688)">
<path d="M11.1124 24.7938C12.0585 25.338 13.1817 25.485 14.236 25.2027C15.2904 24.9204 16.1898 24.2317 16.7374 23.2875L21.9624 14.25C22.1103 13.994 22.2063 13.7113 22.2448 13.4182C22.2834 13.125 22.2638 12.8271 22.1872 12.5415C22.1106 12.256 21.9784 11.9883 21.7983 11.7538C21.6182 11.5193 21.3936 11.3227 21.1374 11.175L19.5749 10.275M10.9061 24.675C10.0465 24.1771 9.41957 23.3585 9.16295 22.3988C8.90633 21.4391 9.04099 20.4168 9.53737 19.5563L13.4936 12.6813C13.7903 12.1648 13.8701 11.5516 13.7155 10.9764C13.5608 10.4011 13.1844 9.91065 12.6686 9.61254L9.79362 7.95629C9.53865 7.80744 9.25674 7.71053 8.96415 7.67113C8.67155 7.63174 8.37405 7.65064 8.08879 7.72675C7.80353 7.80285 7.53615 7.93466 7.30206 8.11458C7.06798 8.2945 6.87181 8.51896 6.72488 8.77504L3.51863 14.375C2.82963 15.5767 2.6447 17.0023 3.00429 18.34C3.36389 19.6776 4.23873 20.8184 5.43738 21.5125L7.66238 22.8L10.9061 24.675Z" fill="#5D5D5D"/>
<path d="M11.1124 24.7938C12.0585 25.338 13.1817 25.485 14.236 25.2027C15.2904 24.9204 16.1898 24.2317 16.7374 23.2875L21.9624 14.25C22.1103 13.994 22.2063 13.7113 22.2448 13.4182C22.2834 13.125 22.2638 12.8271 22.1872 12.5415C22.1106 12.256 21.9784 11.9883 21.7983 11.7538C21.6182 11.5193 21.3936 11.3227 21.1374 11.175L19.5749 10.275M10.9061 24.675C10.0465 24.1771 9.41957 23.3585 9.16295 22.3988C8.90633 21.4391 9.04099 20.4168 9.53737 19.5563L13.4936 12.6813C13.7904 12.1648 13.8701 11.5516 13.7155 10.9764C13.5608 10.4011 13.1844 9.91065 12.6686 9.61254L9.79362 7.95629C9.53865 7.80744 9.25674 7.71053 8.96415 7.67113C8.67155 7.63174 8.37405 7.65064 8.08879 7.72675C7.80353 7.80285 7.53615 7.93466 7.30206 8.11458C7.06798 8.2945 6.87181 8.51896 6.72488 8.77504L3.51863 14.375C2.82963 15.5767 2.6447 17.0023 3.00429 18.34C3.36389 19.6776 4.23873 20.8184 5.43738 21.5125L7.66238 22.8L10.9061 24.675Z" stroke="black" stroke-width="0.25" stroke-linecap="round" stroke-linejoin="round"/>
<path d="M25.1248 8.63742C25.5941 8.90686 26.0056 9.26625 26.3357 9.695C26.6658 10.1238 26.908 10.6134 27.0485 11.136C27.189 11.6586 27.2251 12.2037 27.1545 12.7402C27.0839 13.2767 26.9082 13.794 26.6373 14.2624L22.9498 20.6249C22.6505 21.1411 22.1589 21.5177 21.5826 21.6723C21.0063 21.8269 20.3923 21.7469 19.8748 21.4499L18.3123 20.5437M11.3561 8.87492L12.2811 7.27492C12.9777 6.07035 14.1241 5.19163 15.4683 4.83185C16.8125 4.47207 18.2446 4.66065 19.4498 5.35617L21.6748 6.64367L24.9186 8.51867C24.0573 8.02281 23.0344 7.8891 22.0746 8.14692C21.1149 8.40474 20.2967 9.03299 19.7998 9.89367L14.3748 19.2499C14.0767 19.7657 13.5862 20.1421 13.011 20.2968C12.4357 20.4514 11.8226 20.3716 11.3061 20.0749L9.7373 19.1687" fill="black"/>
<path d="M25.1248 8.63742C25.5941 8.90686 26.0056 9.26625 26.3357 9.695C26.6658 10.1238 26.908 10.6134 27.0485 11.136C27.189 11.6586 27.2251 12.2037 27.1545 12.7402C27.0839 13.2767 26.9082 13.794 26.6373 14.2624L22.9498 20.6249C22.6505 21.1411 22.1589 21.5177 21.5826 21.6723C21.0063 21.8269 20.3923 21.7469 19.8748 21.4499L18.3123 20.5437M11.3561 8.87492L12.2811 7.27492C12.9777 6.07035 14.1241 5.19163 15.4683 4.83185C16.8125 4.47207 18.2446 4.66065 19.4498 5.35617L21.6748 6.64367L24.9186 8.51867C24.0573 8.02281 23.0344 7.8891 22.0746 8.14692C21.1149 8.40474 20.2967 9.03299 19.7998 9.89367L14.3748 19.2499C14.0767 19.7657 13.5862 20.1421 13.011 20.2968C12.4357 20.4514 11.8226 20.3716 11.3061 20.0749L9.7373 19.1687" stroke="black" stroke-width="0.25" stroke-linecap="round" stroke-linejoin="round"/>
</g>
<defs>
<clipPath id="clip0_1234_688">
<rect width="30" height="30" fill="white"/>
</clipPath>
</defs>
</svg>
