<svg width="30" height="30" viewBox="0 0 30 30" fill="none" xmlns="http://www.w3.org/2000/svg">
<path opacity="0.5" d="M19.0914 23.4101C17.4281 23.4103 15.802 22.9173 14.4189 21.9934C13.0357 21.0695 11.9576 19.7562 11.3208 18.2196C10.6841 16.683 10.5173 14.992 10.8415 13.3606C11.1658 11.7292 11.9665 10.2305 13.1425 9.05421C14.3185 7.87787 15.8169 7.07668 17.4482 6.75193C19.0796 6.42719 20.7706 6.59348 22.3074 7.22979C23.8442 7.86609 25.1578 8.94383 26.0821 10.3267C27.0065 11.7096 27.4999 13.3355 27.5002 14.9988V15.0001C27.4979 17.2296 26.6112 19.3672 25.0348 20.9439C23.4584 22.5205 21.321 23.4074 19.0914 23.4101Z" fill="#FF7A00"/>
<path d="M10.9085 23.4101C9.2452 23.4101 7.61921 22.9169 6.23619 21.9928C4.85318 21.0686 3.77525 19.7552 3.13871 18.2185C2.50218 16.6817 2.33563 14.9908 2.66013 13.3594C2.98464 11.728 3.78561 10.2295 4.96177 9.05332C6.13793 7.87716 7.63645 7.07619 9.26783 6.75169C10.8992 6.42719 12.5902 6.59373 14.1269 7.23027C15.6636 7.8668 16.9771 8.94473 17.9012 10.3277C18.8253 11.7108 19.3185 13.3368 19.3185 15.0001C19.3162 17.2299 18.4294 19.3676 16.8527 20.9443C15.2761 22.521 13.1383 23.4078 10.9085 23.4101Z" fill="#FF0000"/>
</svg>
