<svg width="30" height="36" viewBox="0 0 30 36" fill="none" xmlns="http://www.w3.org/2000/svg">
<g clip-path="url(#clip0_1234_676)">
<path d="M25.4208 2.74731C23.7924 0.891213 20.8487 0.095459 17.0829 0.095459H6.15338C5.78079 0.0954728 5.42042 0.228401 5.13707 0.470345C4.85371 0.712288 4.66596 1.04738 4.60757 1.41537L0.0567314 30.2779C-0.0337244 30.847 0.406985 31.3624 0.983845 31.3624H7.73133L9.42592 20.614L9.37333 20.9505C9.49405 20.1908 10.1438 19.6304 10.9133 19.6304H14.1197C20.4186 19.6304 25.3508 17.0719 26.7916 9.6708C26.8343 9.45191 26.8714 9.23886 26.9034 9.03071C26.7216 8.93441 26.7216 8.93441 26.9034 9.03071C27.3324 6.29519 26.9005 4.43313 25.4208 2.74731Z" fill="black"/>
<path d="M12.0078 8.04528C12.1922 7.95745 12.394 7.91193 12.5983 7.91205H21.1668C22.1815 7.91205 23.1279 7.97809 23.9927 8.11727C24.2347 8.15586 24.4754 8.20193 24.7146 8.25541C25.0535 8.33021 25.3886 8.42175 25.7185 8.5297C26.1436 8.6717 26.5396 8.83706 26.9035 9.03071C27.3324 6.29414 26.9005 4.43313 25.4208 2.74731C23.7914 0.891213 20.8487 0.095459 17.0829 0.095459H6.15245C5.38287 0.095459 4.72818 0.655724 4.60757 1.41537L0.056732 30.2768C-0.0337238 30.8469 0.406985 31.3616 0.982911 31.3616H7.73133L11.2471 9.06671C11.2816 8.84757 11.3689 8.64011 11.5014 8.46218C11.634 8.28425 11.8077 8.14118 12.0078 8.04528Z" fill="black"/>
<path d="M26.7914 9.6706C25.3507 17.0707 20.4186 19.6302 14.1196 19.6302H10.9122C10.1428 19.6302 9.49287 20.1906 9.37332 20.9503L7.26513 34.3148C7.18637 34.8129 7.57156 35.2642 8.0755 35.2642H13.7635C14.0893 35.2641 14.4044 35.1478 14.6521 34.9361C14.8998 34.7245 15.0639 34.4314 15.1148 34.1096L15.1702 33.8197L16.2422 27.0255L16.3113 26.65C16.3622 26.3282 16.5263 26.0351 16.774 25.8235C17.0216 25.6118 17.3367 25.4955 17.6625 25.4953H18.5138C24.0238 25.4953 28.3382 23.2569 29.5989 16.7828C30.1252 14.0773 29.8529 11.8185 28.4608 10.2319C28.0385 9.75136 27.5141 9.35448 26.9033 9.03052C26.8702 9.23971 26.8343 9.45171 26.7914 9.6706Z" fill="white"/>
<path d="M25.3958 8.42948C25.1712 8.36388 24.9444 8.3058 24.7159 8.25534C24.4766 8.20273 24.2359 8.15698 23.994 8.11814C23.1282 7.97802 22.1825 7.91187 21.167 7.91187H12.5995C12.395 7.9114 12.1931 7.95732 12.0089 8.04615C11.8087 8.14176 11.6347 8.28474 11.5021 8.46272C11.3696 8.6407 11.2824 8.84831 11.2481 9.06758L9.4271 20.6139L9.37451 20.9505C9.4943 20.1907 10.1441 19.6303 10.9137 19.6303H14.121C20.4199 19.6303 25.352 17.0719 26.7927 9.67073C26.8356 9.45184 26.8716 9.23972 26.9047 9.03065C26.5398 8.83805 26.1449 8.67163 25.7197 8.53057C25.6124 8.49499 25.5044 8.46129 25.3959 8.42948" fill="black"/>
</g>
<defs>
<clipPath id="clip0_1234_676">
<rect width="30" height="35.2941" fill="white"/>
</clipPath>
</defs>
</svg>
