<svg width="25" height="24" viewBox="0 0 25 24" fill="none" xmlns="http://www.w3.org/2000/svg">
<path fill-rule="evenodd" clip-rule="evenodd" d="M12.7 3C7.72939 3 3.69995 7.02944 3.69995 12C3.69995 16.9706 7.72939 21 12.7 21C17.6705 21 21.7 16.9706 21.7 12C21.7 7.02944 17.6705 3 12.7 3ZM1.69995 12C1.69995 5.92487 6.62482 1 12.7 1C18.7751 1 23.7 5.92487 23.7 12C23.7 18.0751 18.7751 23 12.7 23C6.62482 23 1.69995 18.0751 1.69995 12Z" fill="#2D2D2D"/>
<path fill-rule="evenodd" clip-rule="evenodd" d="M12.7 5C13.2522 5 13.7 5.44772 13.7 6V11.382L17.1472 13.1056C17.6411 13.3526 17.8414 13.9532 17.5944 14.4472C17.3474 14.9412 16.7467 15.1414 16.2527 14.8944L12.2527 12.8944C11.914 12.725 11.7 12.3788 11.7 12V6C11.7 5.44772 12.1477 5 12.7 5Z" fill="#2D2D2D"/>
</svg>
