<svg width="25" height="24" viewBox="0 0 25 24" fill="none" xmlns="http://www.w3.org/2000/svg">
<path fill-rule="evenodd" clip-rule="evenodd" d="M4.56456 15.4645C5.50224 14.5268 6.77401 14 8.1001 14H16.1001C17.4262 14 18.698 14.5268 19.6356 15.4645C20.5733 16.4021 21.1001 17.6739 21.1001 19V21C21.1001 21.5523 20.6524 22 20.1001 22C19.5478 22 19.1001 21.5523 19.1001 21V19C19.1001 18.2044 18.784 17.4413 18.2214 16.8787C17.6588 16.3161 16.8957 16 16.1001 16H8.1001C7.30445 16 6.54139 16.3161 5.97878 16.8787C5.41617 17.4413 5.1001 18.2044 5.1001 19V21C5.1001 21.5523 4.65238 22 4.1001 22C3.54781 22 3.1001 21.5523 3.1001 21V19C3.1001 17.6739 3.62688 16.4021 4.56456 15.4645Z" fill="#202029"/>
<path fill-rule="evenodd" clip-rule="evenodd" d="M12.1001 4C10.4432 4 9.1001 5.34315 9.1001 7C9.1001 8.65685 10.4432 10 12.1001 10C13.757 10 15.1001 8.65685 15.1001 7C15.1001 5.34315 13.757 4 12.1001 4ZM7.1001 7C7.1001 4.23858 9.33867 2 12.1001 2C14.8615 2 17.1001 4.23858 17.1001 7C17.1001 9.76142 14.8615 12 12.1001 12C9.33867 12 7.1001 9.76142 7.1001 7Z" fill="#202029"/>
</svg>
